<?xml version="1.0" encoding="UTF-8" standalone="no"?>
<!DOCTYPE svg PUBLIC "-//W3C//DTD SVG 1.1//EN" "http://www.w3.org/Graphics/SVG/1.1/DTD/svg11.dtd">
<svg width="100%" height="100%" viewBox="0 0 58 77" version="1.1" xmlns="http://www.w3.org/2000/svg" xmlns:xlink="http://www.w3.org/1999/xlink" xml:space="preserve" xmlns:serif="http://www.serif.com/" style="fill-rule:evenodd;clip-rule:evenodd;stroke-linejoin:round;stroke-miterlimit:2;">
    <path d="M55.05,22.79C54.85,21.24 54.64,19.94 54.54,18.63C54.445,17.412 54.445,16.188 54.54,14.97C54.54,14.72 55.28,14.34 55.63,14.38C55.98,14.42 56.63,14.93 56.63,15.22C56.55,17.38 56.34,19.53 56.17,21.69C56.182,22.066 56.149,22.442 56.07,22.81C56.02,22.96 55.66,23.08 55.45,23.06C55.24,23.04 55.07,22.8 55.05,22.79ZM55.48,28.76C56.19,29.05 56.14,29.7 56.16,30.26C56.163,31.45 56.086,32.64 55.93,33.82C55.769,34.615 55.665,35.42 55.62,36.23C55.62,36.83 55.41,37.13 54.77,37.3C54.654,37.295 54.548,37.231 54.49,37.13C54.26,35.2 54.36,33.42 54.14,31.49C54.14,31.11 54,30.73 53.93,30.35C53.924,30.299 53.922,30.247 53.922,30.195C53.922,29.405 54.572,28.755 55.362,28.755C55.401,28.755 55.441,28.757 55.48,28.76ZM55.37,7.18C55.25,6.06 55.2,4.18 55.12,3.4C54.991,2.633 54.92,1.858 54.91,1.08C55.01,0.652 55.254,0.271 55.6,0C55.69,-0.09 56.08,0.18 56.34,0.29C57.41,0.76 56.99,1.71 56.98,2.53C56.97,3.35 56.54,5.74 56.56,6.62C56.56,7.62 56.36,7.77 55.48,7.36C55.35,7.33 55.31,7.06 55.37,7.18ZM53.65,65.77C53.46,64.14 53.24,62.84 53.15,61.6C53.15,61.02 53.07,60.45 53.06,59.88C53.05,59.31 53.06,58.66 53.12,58.06C53.12,57.82 53.86,57.43 54.21,57.48C54.56,57.53 55.21,58.03 55.21,58.32L55.09,60L54.97,61.73L54.7,65.13C54.698,65.513 54.658,65.895 54.58,66.27C54.58,66.41 54.18,66.37 53.99,66.27C53.84,66.132 53.723,65.961 53.65,65.77ZM51.6,71.12C51.85,71.79 51.18,72.05 50.6,72.25C49.378,72.659 48.107,72.897 46.82,72.96C45.94,73.06 45.01,72.96 44.2,73.16C44.094,73.197 43.982,73.216 43.869,73.216C43.439,73.216 43.055,72.939 42.92,72.53C42.92,72.45 42.92,72.24 43.02,72.22C44.79,71.67 46.5,71.43 48.12,70.86C48.42,70.733 48.708,70.579 48.98,70.4C49.357,70.227 49.787,70.205 50.18,70.34C50.713,70.473 51.202,70.742 51.6,71.12ZM53.97,50.28C53.85,49.16 53.8,47.28 53.72,46.49C53.581,45.728 53.51,44.955 53.51,44.18C53.612,43.76 53.847,43.385 54.18,43.11C54.27,43.03 54.66,43.3 54.92,43.41C55.99,43.87 55.57,44.82 55.56,45.65C55.55,46.48 55.18,48.86 55.18,49.73C55.18,50.73 54.98,50.88 54.1,50.48C53.95,50.42 53.91,50.16 53.97,50.28ZM14.5,75.08C16.03,74.75 17.3,74.45 18.59,74.23C19.776,74.017 20.976,73.887 22.18,73.84C22.43,73.84 22.89,74.51 22.88,74.84C22.87,75.17 22.43,75.84 22.15,75.84C19.98,75.98 17.81,75.97 15.64,75.98C15.268,76.025 14.892,76.025 14.52,75.98C14.36,75.98 14.21,75.59 14.22,75.38C14.23,75.17 14.49,75.1 14.5,75.08ZM8.57,75.89C8.31,76.62 7.66,76.6 7.1,76.65C5.906,76.708 4.71,76.681 3.52,76.57C2.716,76.436 1.904,76.356 1.09,76.33C0.49,76.33 0.19,76.14 0,75.51C0,75.43 0.09,75.23 0.16,75.22C2.08,75 3.87,75 5.78,74.69C6.16,74.63 6.53,74.51 6.9,74.42C6.973,74.409 7.047,74.403 7.12,74.403C7.916,74.403 8.57,75.058 8.57,75.853C8.57,75.865 8.57,75.878 8.57,75.89ZM30.03,73.77C31.13,73.51 32.97,73.18 33.74,72.99C34.473,72.752 35.221,72.565 35.98,72.43C36.433,72.478 36.857,72.679 37.18,73C37.28,73.08 37.08,73.51 37.01,73.78C36.72,74.91 35.71,74.64 34.89,74.78C34.07,74.92 31.64,74.78 30.77,74.95C29.9,75.12 29.6,74.95 29.89,73.95C29.89,73.77 30.18,73.69 30.03,73.77Z" style="fill:white;fill-rule:nonzero;"/>
</svg>
